<?xml version="1.0" encoding="utf-8"?>
<!-- Generator: Adobe Illustrator 17.0.0, SVG Export Plug-In . SVG Version: 6.00 Build 0)  -->
<!DOCTYPE svg PUBLIC "-//W3C//DTD SVG 1.1//EN" "http://www.w3.org/Graphics/SVG/1.1/DTD/svg11.dtd">
<svg version="1.1" id="Calque_5_copy" xmlns="http://www.w3.org/2000/svg" xmlns:xlink="http://www.w3.org/1999/xlink" x="0px"
	 y="0px" width="954px" height="902px" viewBox="0 0 954 902" enable-background="new 0 0 954 902" xml:space="preserve">
<path fill="#282C34" d="M924,811.6c0,49.4-44.1,89.4-98.5,89.4h-699C72.1,901,28,861,28,811.6V94.4C28,45,72.1,5,126.5,5h699.1
	C879.9,5,924,45,924,94.4V811.6z"/>
<g id="Layer_5_copy">
	<path display="none" fill="#F9EDEE" d="M625.795,164.521c21.471,0,38.87,17.399,38.87,38.778v465.518
		c0,21.471-17.399,38.778-38.87,38.778c-21.471,0-38.87-17.307-38.87-38.778V203.299
		C586.925,181.92,604.324,164.521,625.795,164.521L625.795,164.521z"/>
	<path fill="#E8EEF7" d="M251.9,740.727c-9.625,22.767-40.721,34.983-69.596,27.579c-28.783-7.589-44.423-32.299-34.798-54.974
		l219.987-520.954c9.625-22.767,40.906-35.076,69.596-27.487c28.875,7.589,44.331,32.207,34.891,54.881L251.9,740.727z
		 M593.866,163.226c29.893,3.98,50.161,26.284,45.164,49.976L528.99,734.249c-4.998,23.6-33.317,39.611-63.396,35.724
		c-29.893-3.98-50.161-26.284-45.164-50.069l110.04-520.954C535.376,175.257,563.788,159.246,593.866,163.226L593.866,163.226z"/>
</g>
<path id="bleu_3_" fill="#7B9BDB" d="M685.171,479.288l132.404,117.933c14.742,13.204,14.742,34.458,0,47.571L685.171,762.816
	c-14.742,13.204-38.618,13.204-53.45,0c-14.832-13.204-14.742-34.457,0-47.571l105.634-94.238l-105.634-94.148
	c-14.742-13.204-14.742-34.458,0-47.571C646.463,466.174,670.43,466.083,685.171,479.288L685.171,479.288z"/>
</svg>
